# xmcd
#
# Track frame offsets:
#	150
#	17814
#	36925
#	57994
#	74347
#	91522
#	116544
#	136783
#	153310
#	163282
#	176995
#	193727
#	206266
#	225517
#	242772
#	261814
#	285606
#	306434
#
# Disc length: 4271
#
# Revision: 1
# Processed by: cddbd v1.5.1PL0 Copyright (c) Steve Scherf et al.
# Submitted via: EZCDDA 4.3.3.2
# Normalized: r0:TRMNUM
#
DISCID=fb10ad12
DTITLE=Tony Joe White - Createst Hits And More
DYEAR=1900
DGENRE=
TTITLE0=Steamy Windows
TTITLE1=Cool Town Woman
TTITLE2=Undercover Agent For The Blues
TTITLE3=Rainy Night In Georgia
TTITLE4=Way Down South
TTITLE5=Ol' Black Crow
TTITLE6=Cold Fingers
TTITLE7=Paris Mood Tonight
TTITLE8=Saturday Night In Oak Grave, Louisiana
TTITLE9=Naughty Lady
TTITLE10=Polk Salad Annie
TTITLE11=Backwoods Preacher Man
TTITLE12=Did Somebody Make A Fool Out Of You
TTITLE13=As The Craw Flies
TTITLE14=Menutha
TTITLE15=Lake Placid Blues
TTITLE16=Let The Healing Begin
TTITLE17=Ol' Mather Earth
EXTD=
EXTT0=
EXTT1=
EXTT2=
EXTT3=
EXTT4=
EXTT5=
EXTT6=
EXTT7=
EXTT8=
EXTT9=
EXTT10=
EXTT11=
EXTT12=
EXTT13=
EXTT14=
EXTT15=
EXTT16=
EXTT17=
PLAYORDER=
